# xmcd
#
# Track frame offsets:
#	150
#	15637
#	33845
#	52402
#	70935
#	91465
#	110702
#	134020
#	151135
#	171300
#	186815
#
# Disc length: 2695 seconds
#
# Revision: 1
# Processed by: cddbd v1.4PL0 Copyright (c) Steve Scherf et al.
# Submitted via: audiograbber 1.80
#
DISCID=9b0a850b
DTITLE=정지우 - Turn On
DYEAR=1900
DGENRE=
TTITLE0=離 - 緣(이별의 인연)
TTITLE1=利律背反(이율배반)
TTITLE2=긴 이별이 지나고...
TTITLE3=나에게 돌아가는 길(La Scia Chio Pianga중에서)
TTITLE4=키스 and 느낌
TTITLE5=제대이후.....
TTITLE6=키스 and 느낌(Old and Jazz Version)
TTITLE7=나를 위한 여행
TTITLE8=내가 만든 이별
TTITLE9=Vocalise
TTITLE10=離 - 緣(경음악)
EXTD=
EXTT0=
EXTT1=
EXTT2=
EXTT3=
EXTT4=
EXTT5=
EXTT6=
EXTT7=
EXTT8=
EXTT9=
EXTT10=
PLAYORDER=
